<svg xmlns="http://www.w3.org/2000/svg" width="808" height="1024" fill="none" viewBox="0 0 808 1024">
  <g class="Frame 6">
    <path fill="#E3DFF2" d="M136.314-86.624c1.262-24.604 27.484-39.686 50.465-30.806C247.301-94.042 313.17-84.5 429-84.5c141.762 0 211.983 65.56 267.301 88.084 27.728 11.29 70.047 40.903 67.246 70.71L753.353 182.75c-.235 2.493-.07 5.023-.215 7.523-2.355 40.771-132.668 52.646-320.546 71.37a35.27 35.27 0 0 1-7.271-.052c-239.42-26.874-209.572-55.19-275.926-80.292-15.055-5.696-25.804-19.815-24.98-35.891l11.899-232.03Z" class="Rectangle 1"/>
    <path fill="#EFEBE2" d="M113.604-43.604c1.512-10.342 7.552-20.14 17.665-22.782C188.48-81.33 228.843 11.981 401 29.012c129.071 12.77 151.76 74.655 190.194 75.852 24.029.748 52.291 4.681 59.178 27.714l45.83 153.264c.531 1.777.983 3.621.968 5.475-.343 41.552-131.224 53.466-320.578 72.337a35.27 35.27 0 0 1-7.271-.052c-236.235-26.516-210.319-54.437-273.328-79.289-16.1-6.35-27.1-22.246-24.595-39.371l42.206-288.546Z" class="Rectangle 2"/>
    <path fill="#E3DFF2" d="m82.5 429.5 603-36s-37.052 85.274-50 143C594.642 718.656 708 1009 708 1009H100c-19.331-226.309 81-399.5-17.5-579.5Z" class="Rectangle 5"/>
    <path fill="#EFEBE2" d="M77.603 493.396c1.513-10.342 7.553-20.14 17.666-22.782C152.48 455.67 192.843 548.981 365 566.012c129.071 12.769 151.76 74.655 190.194 75.852 24.029.748 52.291 4.681 59.178 27.714l45.83 153.264c.531 1.777.983 3.621.968 5.475-.343 41.552-131.224 53.466-320.578 72.337a35.27 35.27 0 0 1-7.271-.052c-236.236-26.516-210.319-54.437-273.328-79.289-16.1-6.35-27.1-22.246-24.595-39.371l42.205-288.546Z" class="Rectangle 6"/>
  </g>
</svg>
